<?xml version="1.0" encoding="utf-8"?>
<!-- Svg Vector Icons : http://www.onlinewebfonts.com/icon -->
<!DOCTYPE svg PUBLIC "-//W3C//DTD SVG 1.1//EN" "http://www.w3.org/Graphics/SVG/1.1/DTD/svg11.dtd">
<svg version="1.1" xmlns="http://www.w3.org/2000/svg" xmlns:xlink="http://www.w3.org/1999/xlink" x="0px" y="0px" viewBox="0 0 1000 1000" enable-background="new 0 0 1000 1000" xml:space="preserve">
<metadata> Svg Vector Icons : http://www.onlinewebfonts.com/icon </metadata>
<g><g><path d="M937.9,10H62.1C33.3,10,10,33.3,10,62.1v875.7c0,28.8,23.3,52.1,52.1,52.1h875.7c28.8,0,52.1-23.3,52.1-52.1V62.1C990,33.3,966.7,10,937.9,10z M241.5,727H93.2v-45h148.3L241.5,727L241.5,727z M241.5,668.6H93.2v-45h148.3L241.5,668.6L241.5,668.6z M241.5,610.2H93.2v-45h148.3L241.5,610.2L241.5,610.2z M241.5,551.7H93.2v-45h148.3L241.5,551.7L241.5,551.7z M241.5,493.3H93.2v-44.9h148.3L241.5,493.3L241.5,493.3z M407.8,727H259.5v-45h148.3L407.8,727L407.8,727z M407.8,668.6H259.5v-45h148.3L407.8,668.6L407.8,668.6z M407.8,610.2H259.5v-45h148.3L407.8,610.2L407.8,610.2z M574.2,727H425.8v-45h148.4V727z M574.2,668.6H425.8v-45h148.4V668.6z M574.2,610.2H425.8v-45h148.4V610.2z M574.2,551.7H425.8v-45h148.4V551.7z M574.2,493.3H425.8v-44.9h148.4V493.3z M574.2,434.8H425.8v-45h148.4V434.8z M574.2,376.4H425.8v-45h148.4V376.4z M740.5,727H592.2v-45h148.3L740.5,727L740.5,727z M740.5,668.6H592.2v-45h148.3L740.5,668.6L740.5,668.6z M740.5,610.2H592.2v-45h148.3L740.5,610.2L740.5,610.2z M740.5,551.7H592.2v-45h148.3L740.5,551.7L740.5,551.7z M740.5,493.3H592.2v-44.9h148.3L740.5,493.3L740.5,493.3z M906.8,727H758.5v-45h148.3L906.8,727L906.8,727z M906.8,668.6H758.5v-45h148.3L906.8,668.6L906.8,668.6z M906.8,610.1H758.5v-45h148.3L906.8,610.1L906.8,610.1z M906.8,551.7H758.5v-45h148.3L906.8,551.7L906.8,551.7z M906.8,493.3H758.5v-45h148.3L906.8,493.3L906.8,493.3z M906.8,434.8H758.5v-44.9h148.3L906.8,434.8L906.8,434.8z M906.8,376.4H758.5v-44.9h148.3L906.8,376.4L906.8,376.4z M906.8,317.9H758.5v-45h148.3L906.8,317.9L906.8,317.9z"/></g><g></g><g></g><g></g><g></g><g></g><g></g><g></g><g></g><g></g><g></g><g></g><g></g><g></g><g></g><g></g></g>
</svg>